<svg width="26" height="38" viewBox="0 0 26 38" fill="none" xmlns="http://www.w3.org/2000/svg">
<path d="M19.1715 1.10003L21.0844 2.96336L14.6018 9.27799L10.2314 5.02079C10.1085 4.90084 9.96248 4.80567 9.80178 4.74073C9.64108 4.6758 9.46881 4.64238 9.29483 4.64238C9.12085 4.64238 8.94858 4.6758 8.78788 4.74073C8.62718 4.80567 8.48121 4.90084 8.35831 5.02079L0.38792 12.7976C0.264934 12.9174 0.167376 13.0596 0.100817 13.2162C0.0342576 13.3727 2.89764e-09 13.5405 0 13.7099C-2.89764e-09 13.8793 0.0342576 14.0471 0.100817 14.2036C0.167376 14.3601 0.264934 14.5023 0.38792 14.6221C0.510905 14.7419 0.656911 14.837 0.817599 14.9018C0.978288 14.9666 1.15051 15 1.32444 15C1.49837 15 1.67059 14.9666 1.83128 14.9018C1.99197 14.837 2.13798 14.7419 2.26096 14.6221L9.28819 7.76403L13.6586 12.0212C14.1767 12.5259 15.0136 12.5259 15.5317 12.0212L22.9574 4.80082L24.8703 6.66415C24.9631 6.75281 25.0806 6.81299 25.2083 6.83721C25.3359 6.86144 25.468 6.84865 25.5882 6.80042C25.7084 6.7522 25.8115 6.67068 25.8846 6.56595C25.9577 6.46122 25.9976 6.33789 25.9994 6.21126V0.647137C26.0031 0.562319 25.9889 0.477673 25.9576 0.398425C25.9264 0.319177 25.8788 0.247008 25.8178 0.186377C25.7568 0.125746 25.6837 0.0779397 25.603 0.0459088C25.5222 0.013878 25.4357 -0.00169672 25.3485 0.000146423H19.6497C19.5186 -0.00060391 19.3901 0.0364733 19.2806 0.106705C19.1711 0.176938 19.0853 0.277182 19.0342 0.394804C18.983 0.512426 18.9688 0.642163 18.9932 0.767663C19.0177 0.893163 19.0797 1.00881 19.1715 1.10003Z" fill="#FF6400"/>
<path d="M24.4375 10H21.3125C20.8981 10 20.5007 10.164 20.2076 10.4558C19.9146 10.7477 19.75 11.1435 19.75 11.5562V38H26V11.5562C26 11.1435 25.8354 10.7477 25.5424 10.4558C25.2493 10.164 24.8519 10 24.4375 10ZM15.0625 19.3375H11.9375C11.5231 19.3375 11.1257 19.5014 10.8326 19.7933C10.5396 20.0852 10.375 20.481 10.375 20.8937V38H16.625V20.8937C16.625 20.481 16.4604 20.0852 16.1674 19.7933C15.8743 19.5014 15.4769 19.3375 15.0625 19.3375ZM5.6875 28.675H2.5625C2.1481 28.675 1.75067 28.8389 1.45765 29.1308C1.16462 29.4226 1 29.8185 1 30.2312V38H7.25V30.2312C7.25 29.8185 7.08538 29.4226 6.79235 29.1308C6.49933 28.8389 6.1019 28.675 5.6875 28.675Z" fill="#FF6400"/>
</svg>
