<svg width="19" height="19" viewBox="0 0 19 19" fill="none" xmlns="http://www.w3.org/2000/svg">
<g clip-path="url(#clip0_1_572)">
<path fill-rule="evenodd" clip-rule="evenodd" d="M9.71831 5.24631C9.57857 5.38609 9.50007 5.57564 9.50007 5.77329C9.50007 5.97093 9.57857 6.16049 9.71831 6.30026L12.9182 9.50014L9.71831 12.7C9.58253 12.8406 9.5074 13.0289 9.5091 13.2243C9.5108 13.4197 9.58919 13.6067 9.72739 13.7449C9.86558 13.8831 10.0525 13.9615 10.248 13.9632C10.4434 13.9649 10.6317 13.8897 10.7723 13.754L14.4991 10.0271C14.6388 9.88734 14.7173 9.69778 14.7173 9.50014C14.7173 9.30249 14.6388 9.11294 14.4991 8.97316L10.7723 5.24631C10.6325 5.10658 10.4429 5.02808 10.2453 5.02808C10.0476 5.02808 9.85808 5.10658 9.71831 5.24631ZM5.24608 5.24631C5.10635 5.38609 5.02785 5.57564 5.02785 5.77329C5.02785 5.97093 5.10635 6.16049 5.24608 6.30026L8.44596 9.50014L5.24608 12.7C5.11031 12.8406 5.03518 13.0289 5.03688 13.2243C5.03858 13.4197 5.11697 13.6067 5.25516 13.7449C5.39336 13.8831 5.58031 13.9615 5.77574 13.9632C5.97118 13.9649 6.15946 13.8897 6.30004 13.754L10.0269 10.0271C10.1666 9.88734 10.2451 9.69778 10.2451 9.50014C10.2451 9.30249 10.1666 9.11294 10.0269 8.97316L6.30004 5.24631C6.16026 5.10658 5.97071 5.02808 5.77306 5.02808C5.57541 5.02808 5.38586 5.10658 5.24608 5.24631Z" fill="#FF6400"/>
</g>
<defs>
<clipPath id="clip0_1_572">
<rect width="17.8889" height="17.8889" fill="white" transform="matrix(-1 0 0 1 18.4443 0.555664)"/>
</clipPath>
</defs>
</svg>
