<svg width="10" height="9" viewBox="0 0 10 9" fill="none" xmlns="http://www.w3.org/2000/svg">
<path fill-rule="evenodd" clip-rule="evenodd" d="M5.28145 0.246311C5.42119 0.386088 5.49968 0.575642 5.49968 0.773287C5.49968 0.970933 5.42119 1.16049 5.28145 1.30026L2.08157 4.50014L5.28145 7.70001C5.41722 7.84059 5.49235 8.02887 5.49066 8.22431C5.48896 8.41974 5.41057 8.60669 5.27237 8.74489C5.13417 8.88309 4.94722 8.96148 4.75179 8.96317C4.55636 8.96487 4.36807 8.88974 4.2275 8.75397L0.500644 5.02712C0.360909 4.88734 0.28241 4.69778 0.28241 4.50014C0.28241 4.30249 0.360909 4.11294 0.500644 3.97316L4.2275 0.246311C4.36727 0.106575 4.55683 0.0280762 4.75447 0.0280762C4.95212 0.0280762 5.14167 0.106575 5.28145 0.246311ZM9.75367 0.246311C9.89341 0.386088 9.97191 0.575642 9.97191 0.773287C9.97191 0.970933 9.89341 1.16049 9.75367 1.30026L6.5538 4.50014L9.75367 7.70001C9.88945 7.84059 9.96458 8.02887 9.96288 8.22431C9.96118 8.41974 9.88279 8.60669 9.74459 8.74489C9.6064 8.88309 9.41945 8.96148 9.22401 8.96317C9.02858 8.96487 8.8403 8.88974 8.69972 8.75397L4.97287 5.02712C4.83313 4.88734 4.75463 4.69778 4.75463 4.50014C4.75463 4.30249 4.83313 4.11294 4.97287 3.97316L8.69972 0.246311C8.8395 0.106575 9.02905 0.0280762 9.2267 0.0280762C9.42434 0.0280762 9.6139 0.106575 9.75367 0.246311Z" fill="#FF6400"/>
</svg>
