<svg width="28" height="38" viewBox="0 0 28 38" fill="none" xmlns="http://www.w3.org/2000/svg">
<path d="M27.1429 4.07143C27.1417 2.99196 26.7124 1.95703 25.9491 1.19373C25.1858 0.430436 24.1509 0.00112269 23.0714 0H4.07143C2.99196 0.00112269 1.95703 0.430436 1.19373 1.19373C0.430436 1.95703 0.00112269 2.99196 0 4.07143V33.9286C0.00112269 35.008 0.430436 36.043 1.19373 36.8063C1.95703 37.5696 2.99196 37.9989 4.07143 38H23.0714C24.1509 37.9989 25.1858 37.5696 25.9491 36.8063C26.7124 36.043 27.1417 35.008 27.1429 33.9286V4.07143ZM6.10714 33.9286C5.70452 33.9286 5.31093 33.8092 4.97616 33.5855C4.64139 33.3618 4.38047 33.0439 4.22639 32.6719C4.07231 32.2999 4.032 31.8906 4.11054 31.4957C4.18909 31.1008 4.38298 30.7381 4.66768 30.4534C4.95237 30.1687 5.3151 29.9748 5.70999 29.8963C6.10488 29.8177 6.5142 29.858 6.88618 30.0121C7.25815 30.1662 7.57609 30.4271 7.79978 30.7619C8.02347 31.0966 8.14286 31.4902 8.14286 31.8929C8.14286 32.4328 7.92838 32.9506 7.54661 33.3323C7.16484 33.7141 6.64705 33.9286 6.10714 33.9286ZM6.10714 27.1429C5.70452 27.1429 5.31093 27.0235 4.97616 26.7998C4.64139 26.5761 4.38047 26.2582 4.22639 25.8862C4.07231 25.5142 4.032 25.1049 4.11054 24.71C4.18909 24.3151 4.38298 23.9524 4.66768 23.6677C4.95237 23.383 5.3151 23.1891 5.70999 23.1105C6.10488 23.032 6.5142 23.0723 6.88618 23.2264C7.25815 23.3805 7.57609 23.6414 7.79978 23.9762C8.02347 24.3109 8.14286 24.7045 8.14286 25.1071C8.14286 25.647 7.92838 26.1648 7.54661 26.5466C7.16484 26.9284 6.64705 27.1429 6.10714 27.1429ZM6.10714 20.3571C5.70452 20.3571 5.31093 20.2377 4.97616 20.0141C4.64139 19.7904 4.38047 19.4724 4.22639 19.1005C4.07231 18.7285 4.032 18.3192 4.11054 17.9243C4.18909 17.5294 4.38298 17.1667 4.66768 16.882C4.95237 16.5973 5.3151 16.4034 5.70999 16.3248C6.10488 16.2463 6.5142 16.2866 6.88618 16.4407C7.25815 16.5948 7.57609 16.8557 7.79978 17.1904C8.02347 17.5252 8.14286 17.9188 8.14286 18.3214C8.14286 18.8613 7.92838 19.3791 7.54661 19.7609C7.16484 20.1427 6.64705 20.3571 6.10714 20.3571ZM13.5714 33.9286C13.1688 33.9286 12.7752 33.8092 12.4404 33.5855C12.1057 33.3618 11.8448 33.0439 11.6907 32.6719C11.5366 32.2999 11.4963 31.8906 11.5748 31.4957C11.6534 31.1008 11.8473 30.7381 12.132 30.4534C12.4167 30.1687 12.7794 29.9748 13.1743 29.8963C13.5692 29.8177 13.9785 29.858 14.3505 30.0121C14.7224 30.1662 15.0404 30.4271 15.2641 30.7619C15.4877 31.0966 15.6071 31.4902 15.6071 31.8929C15.6071 32.4328 15.3927 32.9506 15.0109 33.3323C14.6291 33.7141 14.1113 33.9286 13.5714 33.9286ZM13.5714 27.1429C13.1688 27.1429 12.7752 27.0235 12.4404 26.7998C12.1057 26.5761 11.8448 26.2582 11.6907 25.8862C11.5366 25.5142 11.4963 25.1049 11.5748 24.71C11.6534 24.3151 11.8473 23.9524 12.132 23.6677C12.4167 23.383 12.7794 23.1891 13.1743 23.1105C13.5692 23.032 13.9785 23.0723 14.3505 23.2264C14.7224 23.3805 15.0404 23.6414 15.2641 23.9762C15.4877 24.3109 15.6071 24.7045 15.6071 25.1071C15.6071 25.647 15.3927 26.1648 15.0109 26.5466C14.6291 26.9284 14.1113 27.1429 13.5714 27.1429ZM13.5714 20.3571C13.1688 20.3571 12.7752 20.2377 12.4404 20.0141C12.1057 19.7904 11.8448 19.4724 11.6907 19.1005C11.5366 18.7285 11.4963 18.3192 11.5748 17.9243C11.6534 17.5294 11.8473 17.1667 12.132 16.882C12.4167 16.5973 12.7794 16.4034 13.1743 16.3248C13.5692 16.2463 13.9785 16.2866 14.3505 16.4407C14.7224 16.5948 15.0404 16.8557 15.2641 17.1904C15.4877 17.5252 15.6071 17.9188 15.6071 18.3214C15.6071 18.8613 15.3927 19.3791 15.0109 19.7609C14.6291 20.1427 14.1113 20.3571 13.5714 20.3571ZM23.0714 31.8929C23.0714 32.4328 22.857 32.9506 22.4752 33.3323C22.0934 33.7141 21.5756 33.9286 21.0357 33.9286C20.4958 33.9286 19.978 33.7141 19.5962 33.3323C19.2145 32.9506 19 32.4328 19 31.8929V25.1071C19 24.5672 19.2145 24.0494 19.5962 23.6677C19.978 23.2859 20.4958 23.0714 21.0357 23.0714C21.5756 23.0714 22.0934 23.2859 22.4752 23.6677C22.857 24.0494 23.0714 24.5672 23.0714 25.1071V31.8929ZM21.0357 20.3571C20.6331 20.3571 20.2395 20.2377 19.9047 20.0141C19.57 19.7904 19.309 19.4724 19.155 19.1005C19.0009 18.7285 18.9606 18.3192 19.0391 17.9243C19.1177 17.5294 19.3115 17.1667 19.5962 16.882C19.8809 16.5973 20.2437 16.4034 20.6386 16.3248C21.0335 16.2463 21.4428 16.2866 21.8147 16.4407C22.1867 16.5948 22.5047 16.8557 22.7283 17.1904C22.952 17.5252 23.0714 17.9188 23.0714 18.3214C23.0714 18.8613 22.857 19.3791 22.4752 19.7609C22.0934 20.1427 21.5756 20.3571 21.0357 20.3571ZM22.6736 11.8165C22.4192 12.071 22.0742 12.2141 21.7143 12.2143H5.42857C5.06863 12.2143 4.72344 12.0713 4.46893 11.8168C4.21441 11.5623 4.07143 11.2171 4.07143 10.8571V5.42857C4.07143 5.06863 4.21441 4.72344 4.46893 4.46893C4.72344 4.21441 5.06863 4.07143 5.42857 4.07143H21.7143C22.0742 4.07143 22.4194 4.21441 22.6739 4.46893C22.9284 4.72344 23.0714 5.06863 23.0714 5.42857V10.8571C23.0713 11.217 22.9282 11.5621 22.6736 11.8165Z" fill="#FF6400"/>
</svg>
