<svg width="58" height="38" viewBox="0 0 58 38" fill="none" xmlns="http://www.w3.org/2000/svg">
<path d="M11.6881 8.7798H2.92202C1.31491 8.7798 0 7.4649 0 5.85778C0 4.25067 1.31491 2.93576 2.92202 2.93576H11.6881C13.2952 2.93576 14.6101 4.25067 14.6101 5.85778C14.6101 7.4649 13.2952 8.7798 11.6881 8.7798ZM11.6881 17.5459H2.92202C1.31491 17.5459 0 18.8608 0 20.4679C0 22.075 1.31491 23.3899 2.92202 23.3899H11.6881C13.2952 23.3899 14.6101 22.075 14.6101 20.4679C14.6101 18.8608 13.2952 17.5459 11.6881 17.5459ZM52.2457 35.9254L43.129 26.8087C40.6161 28.445 37.6064 29.38 34.363 29.2047C27.4378 28.8833 21.5061 23.4776 20.571 16.6108C20.2624 14.3285 20.4963 12.0056 21.2538 9.83066C22.0112 7.6557 23.2708 5.68999 24.9303 4.09309C26.5898 2.49619 28.6025 1.31309 30.805 0.639848C33.0075 -0.0333989 35.3376 -0.177827 37.6064 0.218287C43.3043 1.18255 48.038 5.62402 49.2945 11.2635C50.2587 15.5297 49.3237 19.5036 47.2491 22.6594L56.395 31.8053C57.5346 32.9449 57.5346 34.7858 56.395 35.9254C55.2554 37.065 53.3853 37.065 52.2457 35.9254ZM43.8303 14.6238C43.8303 9.80251 39.8856 5.85778 35.0642 5.85778C30.2429 5.85778 26.2982 9.80251 26.2982 14.6238C26.2982 19.4452 30.2429 23.3899 35.0642 23.3899C39.8856 23.3899 43.8303 19.4452 43.8303 14.6238ZM2.92202 38H26.2982C27.9053 38 29.2202 36.6851 29.2202 35.078C29.2202 33.4709 27.9053 32.156 26.2982 32.156H2.92202C1.31491 32.156 0 33.4709 0 35.078C0 36.6851 1.31491 38 2.92202 38Z" fill="#FF6400"/>
</svg>
