<svg width="37" height="38" viewBox="0 0 37 38" fill="none" xmlns="http://www.w3.org/2000/svg">
<path d="M7.93609 33.5855V20.2192H12.0629C12.2441 20.2192 12.4312 20.2377 12.6243 20.2747C12.8175 20.3118 13.0046 20.3634 13.1858 20.4295L25.1316 24.8142C25.7215 25.0298 26.2083 25.3843 26.5919 25.8776C26.9741 26.371 27.1652 26.9258 27.1652 27.5422C27.1652 27.906 27.0462 28.2009 26.8081 28.4271C26.57 28.6533 26.2771 28.7657 25.9292 28.7644H23.5444C22.8698 28.7644 22.2118 28.7247 21.5703 28.6453C20.9288 28.566 20.2999 28.4165 19.6835 28.1969L16.1281 26.9192L15.5587 28.3953L19.4553 29.7346C20.0796 29.9462 20.7251 30.0917 21.3917 30.171C22.0584 30.2517 22.7336 30.2921 23.4174 30.2921H33.651C34.5571 30.2921 35.3308 30.5897 35.9723 31.1849C36.6138 31.7801 36.9339 32.5254 36.9326 33.4209L23.0563 38L7.93609 33.5855ZM0 36.3969V20.2192H5.95207V36.3969H0ZM23.2349 11.4815H24.838V9.87845H23.2349V11.4815ZM19.2669 11.4815H20.8699V9.87845H19.2669V11.4815ZM23.2349 15.4496H24.838V13.8465H23.2349V15.4496ZM19.2669 15.4496H20.8699V13.8465H19.2669V15.4496ZM28.6275 24.0345C28.3166 23.2488 27.8206 22.5445 27.1395 21.9215C26.457 21.2985 25.5509 20.7807 24.4213 20.368L11.1403 15.4873H9.15627V9.19595L22.0524 0L34.9486 9.19396V24.0345H28.6275Z" fill="#FF6400"/>
</svg>
