<svg width="22" height="23" viewBox="0 0 22 23" fill="none" xmlns="http://www.w3.org/2000/svg">
<path id="Vector" d="M1.32 22.1111C1.32 22.6028 1.71325 23 2.2 23H10.065V12.5556H1.32V22.1111ZM11.935 23H19.8C20.2868 23 20.68 22.6028 20.68 22.1111V12.5556H11.935V23ZM21.12 5.88889H17.061C17.435 5.29444 17.655 4.58889 17.655 3.83333C17.655 1.71944 15.9528 0 13.86 0C12.7215 0 11.6958 0.511111 11 1.31667C10.3042 0.511111 9.2785 0 8.14 0C6.04725 0 4.345 1.71944 4.345 3.83333C4.345 4.58889 4.56225 5.29444 4.939 5.88889H0.88C0.39325 5.88889 0 6.28611 0 6.77778V10.6667H10.065V5.88889H11.935V10.6667H22V6.77778C22 6.28611 21.6068 5.88889 21.12 5.88889ZM10.065 5.77778H8.14C7.0785 5.77778 6.215 4.90556 6.215 3.83333C6.215 2.76111 7.0785 1.88889 8.14 1.88889C9.2015 1.88889 10.065 2.76111 10.065 3.83333V5.77778ZM13.86 5.77778H11.935V3.83333C11.935 2.76111 12.7985 1.88889 13.86 1.88889C14.9215 1.88889 15.785 2.76111 15.785 3.83333C15.785 4.90556 14.9215 5.77778 13.86 5.77778Z" fill="#FF6400"/>
</svg>
